<svg xmlns="http://www.w3.org/2000/svg" viewBox="0 0 100 100" fill="none">
  <defs>
    <linearGradient id="logoGradient" x1="0%" y1="0%" x2="100%" y2="100%">
      <stop offset="0%" stop-color="#00F0FF" />
      <stop offset="100%" stop-color="#4FFFB0" />
    </linearGradient>
  </defs>
  <path
    d="M50 8 C65 8 78 20 78 36 C78 43 75 49 71 54 L60 43 C63 40 64 37 64 33 C64 24 58 18 50 18 C42 18 36 24 36 33 L36 42 C36 50 30 56 22 56 C14 56 8 50 8 42 C8 24 27 8 50 8Z"
    fill="url(#logoGradient)"
  />
  <path
    d="M92 50 C92 58 86 64 78 64 C70 64 64 58 64 50 L64 42 C64 34 58 28 50 28 C42 28 36 34 36 42 L36 54 C32 50 29 45 29 38 C29 20 42 8 50 8 C73 8 92 24 92 42 C92 45 92 47 92 50Z"
    fill="url(#logoGradient)"
    opacity="0.85"
  />
  <path
    d="M50 92 C35 92 22 80 22 64 C22 57 25 51 29 46 L40 57 C37 60 36 63 36 67 C36 76 42 82 50 82 C58 82 64 76 64 67 L64 58 C64 50 70 44 78 44 C86 44 92 50 92 58 C92 76 73 92 50 92Z"
    fill="url(#logoGradient)"
  />
  <path
    d="M8 50 C8 42 14 36 22 36 C30 36 36 42 36 50 L36 58 C36 66 42 72 50 72 C58 72 64 66 64 58 L64 46 C68 50 71 55 71 62 C71 80 58 92 50 92 C27 92 8 76 8 58 C8 55 8 53 8 50Z"
    fill="url(#logoGradient)"
    opacity="0.85"
  />
</svg>
