<?xml version="1.0" encoding="UTF-8"?>
<svg id="Layer_1" xmlns="http://www.w3.org/2000/svg" version="1.1" xmlns:xlink="http://www.w3.org/1999/xlink" viewBox="0 0 128 128">
  <!-- Generator: Adobe Illustrator 30.2.1, SVG Export Plug-In . SVG Version: 2.1.1 Build 1)  -->
  <defs>
    <style>
      .st0 {
        fill: url(#linear-gradient);
      }
    </style>
    <linearGradient id="linear-gradient" x1="8.99" y1="64" x2="119.01" y2="64" gradientUnits="userSpaceOnUse">
      <stop offset="0" stop-color="aqua"/>
      <stop offset="1" stop-color="#70ffa8"/>
    </linearGradient>
  </defs>
  <path class="st0" d="M64,8.99c-12.09,0-21.96,10.03-21.96,22.13v13.92c-3.25-1.91-7.04-3-11.09-3-12.1,0-21.92,9.79-21.96,21.88-.04,12.12,10.01,22.04,22.13,22.04h13.92c-1.91,3.25-3,7.04-3,11.09,0,12.1,9.79,21.92,21.88,21.96.03,0,.05,0,.08,0,12.09,0,21.96-10.03,21.96-22.13v-13.92c3.25,1.91,7.04,3,11.09,3,12.1,0,21.92-9.79,21.96-21.88.04-12.12-10.01-22.04-22.13-22.04h-13.92c1.91-3.25,3-7.04,3-11.09,0-12.1-9.79-21.92-21.88-21.96-.03,0-.05,0-.08,0h0ZM50.29,61.13s0,0,0,0v-31.02h.07c.45-7.06,6.48-12.83,13.64-12.84,0,0,0,0,0,0,7.56,0,13.68,6.13,13.68,13.69,0,4.51-2.3,8.58-5.76,11.08h-15.63c-3.34,2.25-3.78,5.55-2.47,7.86.44.78,1.08,1.44,1.87,1.92l15.85,9.52v-8.25l-1.64-.98-3.03-1.82s0,0,0,0h31.02v.07c7.06.45,12.83,6.48,12.84,13.64,0,7.56-6.12,13.69-13.68,13.69,0,0,0,0-.01,0-4.51,0-8.57-2.3-11.08-5.76v-15.63c-1.49-2.21-3.45-3.15-5.27-3.15-.93,0-1.82.24-2.59.68-.78.44-1.44,1.08-1.92,1.87l-9.52,15.85h8.25l.98-1.64,1.82-3.03s0,0,0,0c0,0,0,0,0,0v31.02h-.07c-.45,7.06-6.48,12.83-13.64,12.84h0c-7.56,0-13.68-6.13-13.68-13.69,0-4.51,2.3-8.57,5.76-11.08h15.63c3.34-2.25,3.78-5.55,2.47-7.86-.44-.78-1.08-1.44-1.87-1.92l-15.85-9.52v8.25l1.64.98,3.03,1.82s0,0,0,0h-31.02v-.07c-7.06-.45-12.83-6.48-12.84-13.64,0-7.56,6.12-13.69,13.68-13.69,0,0,0,0,.01,0,4.51,0,8.58,2.3,11.08,5.76v15.63c1.49,2.21,3.45,3.15,5.27,3.15.93,0,1.82-.24,2.59-.68.78-.44,1.44-1.08,1.92-1.87l9.52-15.85h-8.25l-.98,1.64-1.82,3.03s0,0,0,0h0Z"/>
</svg>
